G04 EAGLE Gerber RS-274X export*
G75*
%MOMM*%
%FSLAX34Y34*%
%LPD*%
%INTop Copper*%
%IPPOS*%
%AMOC8*
5,1,8,0,0,1.08239X$1,22.5*%
G01*
%ADD10C,0.050800*%
%ADD11C,1.308000*%
%ADD12R,1.524000X1.524000*%
%ADD13P,1.649562X8X22.500000*%
%ADD14C,1.524000*%
%ADD15C,1.016000*%
%ADD16C,4.445000*%
%ADD17C,0.381000*%
%ADD18C,0.254000*%
%ADD19C,0.152400*%


D10*
X54215Y686054D02*
X51054Y686054D01*
X51054Y693166D01*
X54215Y693166D01*
X53425Y690005D02*
X51054Y690005D01*
X56985Y693166D02*
X56985Y686054D01*
X60936Y686054D02*
X56985Y693166D01*
X60936Y693166D02*
X60936Y686054D01*
X67066Y690005D02*
X68251Y690005D01*
X68251Y686054D01*
X65881Y686054D01*
X65803Y686056D01*
X65726Y686062D01*
X65649Y686071D01*
X65573Y686084D01*
X65497Y686101D01*
X65422Y686122D01*
X65349Y686146D01*
X65276Y686174D01*
X65205Y686206D01*
X65136Y686241D01*
X65069Y686279D01*
X65003Y686320D01*
X64940Y686365D01*
X64879Y686413D01*
X64820Y686463D01*
X64764Y686517D01*
X64710Y686573D01*
X64660Y686632D01*
X64612Y686693D01*
X64567Y686756D01*
X64526Y686822D01*
X64488Y686889D01*
X64453Y686958D01*
X64421Y687029D01*
X64393Y687102D01*
X64369Y687175D01*
X64348Y687250D01*
X64331Y687326D01*
X64318Y687402D01*
X64309Y687479D01*
X64303Y687556D01*
X64301Y687634D01*
X64300Y687634D02*
X64300Y691586D01*
X64301Y691586D02*
X64303Y691664D01*
X64309Y691741D01*
X64318Y691818D01*
X64331Y691894D01*
X64348Y691970D01*
X64369Y692045D01*
X64393Y692118D01*
X64421Y692191D01*
X64453Y692262D01*
X64488Y692331D01*
X64526Y692398D01*
X64567Y692464D01*
X64612Y692527D01*
X64660Y692588D01*
X64710Y692647D01*
X64764Y692703D01*
X64820Y692757D01*
X64879Y692807D01*
X64940Y692855D01*
X65003Y692900D01*
X65069Y692941D01*
X65136Y692979D01*
X65205Y693014D01*
X65276Y693046D01*
X65349Y693074D01*
X65422Y693098D01*
X65497Y693119D01*
X65573Y693136D01*
X65649Y693149D01*
X65726Y693158D01*
X65803Y693164D01*
X65881Y693166D01*
X68251Y693166D01*
X71991Y693166D02*
X71991Y686054D01*
X71201Y686054D02*
X72781Y686054D01*
X72781Y693166D02*
X71201Y693166D01*
X79159Y686054D02*
X81135Y686054D01*
X81222Y686056D01*
X81310Y686062D01*
X81397Y686071D01*
X81483Y686085D01*
X81569Y686102D01*
X81653Y686123D01*
X81737Y686148D01*
X81820Y686177D01*
X81901Y686209D01*
X81981Y686244D01*
X82059Y686283D01*
X82136Y686326D01*
X82210Y686372D01*
X82282Y686421D01*
X82352Y686473D01*
X82420Y686529D01*
X82485Y686587D01*
X82548Y686648D01*
X82607Y686712D01*
X82664Y686779D01*
X82718Y686847D01*
X82769Y686919D01*
X82816Y686992D01*
X82861Y687067D01*
X82902Y687145D01*
X82939Y687224D01*
X82973Y687304D01*
X83003Y687386D01*
X83030Y687469D01*
X83053Y687554D01*
X83072Y687639D01*
X83087Y687725D01*
X83099Y687812D01*
X83107Y687899D01*
X83111Y687986D01*
X83111Y688074D01*
X83107Y688161D01*
X83099Y688248D01*
X83087Y688335D01*
X83072Y688421D01*
X83053Y688506D01*
X83030Y688591D01*
X83003Y688674D01*
X82973Y688756D01*
X82939Y688836D01*
X82902Y688915D01*
X82861Y688993D01*
X82816Y689068D01*
X82769Y689141D01*
X82718Y689213D01*
X82664Y689281D01*
X82607Y689348D01*
X82548Y689412D01*
X82485Y689473D01*
X82420Y689531D01*
X82352Y689587D01*
X82282Y689639D01*
X82210Y689688D01*
X82136Y689734D01*
X82059Y689777D01*
X81981Y689816D01*
X81901Y689851D01*
X81820Y689883D01*
X81737Y689912D01*
X81653Y689937D01*
X81569Y689958D01*
X81483Y689975D01*
X81397Y689989D01*
X81310Y689998D01*
X81222Y690004D01*
X81135Y690006D01*
X81530Y693166D02*
X79159Y693166D01*
X81530Y693166D02*
X81609Y693164D01*
X81687Y693158D01*
X81765Y693148D01*
X81843Y693135D01*
X81920Y693117D01*
X81996Y693096D01*
X82070Y693071D01*
X82144Y693042D01*
X82216Y693010D01*
X82286Y692974D01*
X82354Y692934D01*
X82420Y692891D01*
X82484Y692845D01*
X82546Y692796D01*
X82605Y692744D01*
X82661Y692689D01*
X82715Y692631D01*
X82765Y692571D01*
X82813Y692508D01*
X82857Y692443D01*
X82898Y692376D01*
X82936Y692307D01*
X82970Y692236D01*
X83001Y692163D01*
X83028Y692089D01*
X83051Y692014D01*
X83070Y691938D01*
X83086Y691860D01*
X83098Y691782D01*
X83106Y691704D01*
X83110Y691625D01*
X83110Y691547D01*
X83106Y691468D01*
X83098Y691390D01*
X83086Y691312D01*
X83070Y691234D01*
X83051Y691158D01*
X83028Y691083D01*
X83001Y691009D01*
X82970Y690936D01*
X82936Y690865D01*
X82898Y690796D01*
X82857Y690729D01*
X82813Y690664D01*
X82765Y690601D01*
X82715Y690541D01*
X82661Y690483D01*
X82605Y690428D01*
X82546Y690376D01*
X82484Y690327D01*
X82420Y690281D01*
X82354Y690238D01*
X82286Y690198D01*
X82216Y690162D01*
X82144Y690130D01*
X82070Y690101D01*
X81996Y690076D01*
X81920Y690055D01*
X81843Y690037D01*
X81765Y690024D01*
X81687Y690014D01*
X81609Y690008D01*
X81530Y690006D01*
X81530Y690005D02*
X79949Y690005D01*
X86017Y689610D02*
X86019Y689758D01*
X86024Y689905D01*
X86034Y690053D01*
X86047Y690200D01*
X86063Y690347D01*
X86084Y690493D01*
X86108Y690639D01*
X86136Y690784D01*
X86167Y690928D01*
X86202Y691071D01*
X86241Y691214D01*
X86283Y691355D01*
X86329Y691496D01*
X86378Y691635D01*
X86431Y691773D01*
X86487Y691910D01*
X86547Y692045D01*
X86610Y692178D01*
X86636Y692249D01*
X86666Y692318D01*
X86700Y692386D01*
X86737Y692452D01*
X86777Y692516D01*
X86821Y692578D01*
X86867Y692637D01*
X86917Y692694D01*
X86970Y692748D01*
X87025Y692800D01*
X87083Y692848D01*
X87143Y692894D01*
X87206Y692936D01*
X87271Y692975D01*
X87337Y693011D01*
X87406Y693043D01*
X87475Y693071D01*
X87547Y693096D01*
X87619Y693117D01*
X87693Y693135D01*
X87767Y693148D01*
X87842Y693158D01*
X87917Y693164D01*
X87993Y693166D01*
X88069Y693164D01*
X88144Y693158D01*
X88219Y693148D01*
X88293Y693135D01*
X88367Y693117D01*
X88439Y693096D01*
X88510Y693071D01*
X88580Y693043D01*
X88649Y693011D01*
X88715Y692975D01*
X88780Y692936D01*
X88843Y692894D01*
X88903Y692848D01*
X88961Y692800D01*
X89016Y692748D01*
X89069Y692694D01*
X89119Y692637D01*
X89165Y692578D01*
X89209Y692516D01*
X89249Y692452D01*
X89286Y692386D01*
X89320Y692318D01*
X89350Y692249D01*
X89376Y692178D01*
X89375Y692178D02*
X89438Y692045D01*
X89498Y691910D01*
X89554Y691773D01*
X89607Y691635D01*
X89656Y691496D01*
X89702Y691355D01*
X89744Y691214D01*
X89783Y691071D01*
X89818Y690928D01*
X89849Y690784D01*
X89877Y690639D01*
X89901Y690493D01*
X89922Y690347D01*
X89938Y690200D01*
X89951Y690053D01*
X89961Y689905D01*
X89966Y689758D01*
X89968Y689610D01*
X86017Y689610D02*
X86019Y689462D01*
X86024Y689315D01*
X86034Y689167D01*
X86047Y689020D01*
X86063Y688873D01*
X86084Y688727D01*
X86108Y688582D01*
X86136Y688436D01*
X86167Y688292D01*
X86202Y688149D01*
X86241Y688006D01*
X86283Y687865D01*
X86329Y687724D01*
X86378Y687585D01*
X86431Y687447D01*
X86487Y687310D01*
X86547Y687175D01*
X86610Y687042D01*
X86636Y686971D01*
X86666Y686902D01*
X86700Y686834D01*
X86737Y686768D01*
X86777Y686704D01*
X86821Y686642D01*
X86867Y686583D01*
X86917Y686526D01*
X86970Y686472D01*
X87025Y686420D01*
X87083Y686372D01*
X87143Y686326D01*
X87206Y686284D01*
X87271Y686245D01*
X87337Y686209D01*
X87406Y686177D01*
X87476Y686149D01*
X87547Y686124D01*
X87619Y686103D01*
X87693Y686085D01*
X87767Y686072D01*
X87842Y686062D01*
X87917Y686056D01*
X87993Y686054D01*
X89375Y687042D02*
X89438Y687175D01*
X89498Y687310D01*
X89554Y687447D01*
X89607Y687585D01*
X89656Y687724D01*
X89702Y687865D01*
X89744Y688006D01*
X89783Y688149D01*
X89818Y688292D01*
X89849Y688436D01*
X89877Y688582D01*
X89901Y688727D01*
X89922Y688873D01*
X89938Y689020D01*
X89951Y689167D01*
X89961Y689315D01*
X89966Y689462D01*
X89968Y689610D01*
X89376Y687042D02*
X89350Y686971D01*
X89320Y686902D01*
X89286Y686834D01*
X89249Y686768D01*
X89209Y686704D01*
X89165Y686642D01*
X89119Y686583D01*
X89069Y686526D01*
X89016Y686472D01*
X88961Y686420D01*
X88903Y686372D01*
X88843Y686326D01*
X88780Y686284D01*
X88715Y686245D01*
X88649Y686209D01*
X88580Y686177D01*
X88510Y686149D01*
X88439Y686124D01*
X88367Y686103D01*
X88293Y686085D01*
X88219Y686072D01*
X88144Y686062D01*
X88069Y686056D01*
X87993Y686054D01*
X86412Y687634D02*
X89573Y691586D01*
X92875Y691586D02*
X94851Y693166D01*
X94851Y686054D01*
X96826Y686054D02*
X92875Y686054D01*
X99795Y688820D02*
X104536Y688820D01*
X114157Y690005D02*
X115343Y690005D01*
X115343Y686054D01*
X112972Y686054D01*
X112894Y686056D01*
X112817Y686062D01*
X112740Y686071D01*
X112664Y686084D01*
X112588Y686101D01*
X112513Y686122D01*
X112440Y686146D01*
X112367Y686174D01*
X112296Y686206D01*
X112227Y686241D01*
X112160Y686279D01*
X112094Y686320D01*
X112031Y686365D01*
X111970Y686413D01*
X111911Y686463D01*
X111855Y686517D01*
X111801Y686573D01*
X111751Y686632D01*
X111703Y686693D01*
X111658Y686756D01*
X111617Y686822D01*
X111579Y686889D01*
X111544Y686958D01*
X111512Y687029D01*
X111484Y687102D01*
X111460Y687175D01*
X111439Y687250D01*
X111422Y687326D01*
X111409Y687402D01*
X111400Y687479D01*
X111394Y687556D01*
X111392Y687634D01*
X111392Y691586D01*
X111394Y691664D01*
X111400Y691741D01*
X111409Y691818D01*
X111422Y691894D01*
X111439Y691970D01*
X111460Y692045D01*
X111484Y692118D01*
X111512Y692191D01*
X111544Y692262D01*
X111579Y692331D01*
X111617Y692398D01*
X111658Y692464D01*
X111703Y692527D01*
X111751Y692588D01*
X111801Y692647D01*
X111855Y692703D01*
X111911Y692757D01*
X111970Y692807D01*
X112031Y692855D01*
X112094Y692900D01*
X112160Y692941D01*
X112227Y692979D01*
X112296Y693014D01*
X112367Y693046D01*
X112440Y693074D01*
X112513Y693098D01*
X112588Y693119D01*
X112664Y693136D01*
X112740Y693149D01*
X112817Y693158D01*
X112894Y693164D01*
X112972Y693166D01*
X115343Y693166D01*
X118416Y689215D02*
X118416Y687634D01*
X118417Y689215D02*
X118419Y689294D01*
X118425Y689372D01*
X118435Y689450D01*
X118448Y689528D01*
X118466Y689605D01*
X118487Y689681D01*
X118512Y689755D01*
X118541Y689829D01*
X118573Y689901D01*
X118609Y689971D01*
X118649Y690039D01*
X118692Y690105D01*
X118738Y690169D01*
X118787Y690231D01*
X118839Y690290D01*
X118894Y690346D01*
X118952Y690400D01*
X119012Y690450D01*
X119075Y690498D01*
X119140Y690542D01*
X119207Y690583D01*
X119276Y690621D01*
X119347Y690655D01*
X119420Y690686D01*
X119494Y690713D01*
X119569Y690736D01*
X119645Y690755D01*
X119723Y690771D01*
X119801Y690783D01*
X119879Y690791D01*
X119958Y690795D01*
X120036Y690795D01*
X120115Y690791D01*
X120193Y690783D01*
X120271Y690771D01*
X120349Y690755D01*
X120425Y690736D01*
X120500Y690713D01*
X120574Y690686D01*
X120647Y690655D01*
X120718Y690621D01*
X120787Y690583D01*
X120854Y690542D01*
X120919Y690498D01*
X120982Y690450D01*
X121042Y690400D01*
X121100Y690346D01*
X121155Y690290D01*
X121207Y690231D01*
X121256Y690169D01*
X121302Y690105D01*
X121345Y690039D01*
X121385Y689971D01*
X121421Y689901D01*
X121453Y689829D01*
X121482Y689755D01*
X121507Y689681D01*
X121528Y689605D01*
X121546Y689528D01*
X121559Y689450D01*
X121569Y689372D01*
X121575Y689294D01*
X121577Y689215D01*
X121577Y687634D01*
X121575Y687555D01*
X121569Y687477D01*
X121559Y687399D01*
X121546Y687321D01*
X121528Y687244D01*
X121507Y687168D01*
X121482Y687094D01*
X121453Y687020D01*
X121421Y686948D01*
X121385Y686878D01*
X121345Y686810D01*
X121302Y686744D01*
X121256Y686680D01*
X121207Y686618D01*
X121155Y686559D01*
X121100Y686503D01*
X121042Y686449D01*
X120982Y686399D01*
X120919Y686351D01*
X120854Y686307D01*
X120787Y686266D01*
X120718Y686228D01*
X120647Y686194D01*
X120574Y686163D01*
X120500Y686136D01*
X120425Y686113D01*
X120349Y686094D01*
X120271Y686078D01*
X120193Y686066D01*
X120115Y686058D01*
X120036Y686054D01*
X119958Y686054D01*
X119879Y686058D01*
X119801Y686066D01*
X119723Y686078D01*
X119645Y686094D01*
X119569Y686113D01*
X119494Y686136D01*
X119420Y686163D01*
X119347Y686194D01*
X119276Y686228D01*
X119207Y686266D01*
X119140Y686307D01*
X119075Y686351D01*
X119012Y686399D01*
X118952Y686449D01*
X118894Y686503D01*
X118839Y686559D01*
X118787Y686618D01*
X118738Y686680D01*
X118692Y686744D01*
X118649Y686810D01*
X118609Y686878D01*
X118573Y686948D01*
X118541Y687020D01*
X118512Y687094D01*
X118487Y687168D01*
X118466Y687244D01*
X118448Y687321D01*
X118435Y687399D01*
X118425Y687477D01*
X118419Y687555D01*
X118417Y687634D01*
X124461Y687239D02*
X124461Y693166D01*
X124461Y687239D02*
X124463Y687173D01*
X124468Y687106D01*
X124478Y687041D01*
X124491Y686975D01*
X124507Y686911D01*
X124527Y686848D01*
X124551Y686786D01*
X124578Y686725D01*
X124609Y686666D01*
X124643Y686609D01*
X124680Y686553D01*
X124720Y686500D01*
X124762Y686449D01*
X124808Y686401D01*
X124856Y686355D01*
X124907Y686313D01*
X124960Y686273D01*
X125016Y686236D01*
X125073Y686202D01*
X125132Y686171D01*
X125193Y686144D01*
X125255Y686120D01*
X125318Y686100D01*
X125382Y686084D01*
X125448Y686071D01*
X125513Y686061D01*
X125580Y686056D01*
X125646Y686054D01*
X128400Y686054D02*
X128400Y691981D01*
X128402Y692047D01*
X128407Y692114D01*
X128417Y692179D01*
X128430Y692245D01*
X128446Y692309D01*
X128466Y692372D01*
X128490Y692434D01*
X128517Y692495D01*
X128548Y692554D01*
X128582Y692611D01*
X128619Y692667D01*
X128659Y692720D01*
X128701Y692771D01*
X128747Y692819D01*
X128795Y692865D01*
X128846Y692907D01*
X128899Y692947D01*
X128955Y692984D01*
X129012Y693018D01*
X129071Y693049D01*
X129131Y693076D01*
X129194Y693099D01*
X129257Y693120D01*
X129321Y693136D01*
X129386Y693149D01*
X129452Y693159D01*
X129519Y693164D01*
X129585Y693166D01*
X129980Y693166D01*
X129980Y690795D02*
X127610Y690795D01*
X135945Y690005D02*
X137920Y690005D01*
X137920Y690006D02*
X138007Y690004D01*
X138095Y689998D01*
X138182Y689989D01*
X138268Y689975D01*
X138354Y689958D01*
X138438Y689937D01*
X138522Y689912D01*
X138605Y689883D01*
X138686Y689851D01*
X138766Y689816D01*
X138844Y689777D01*
X138921Y689734D01*
X138995Y689688D01*
X139067Y689639D01*
X139137Y689587D01*
X139205Y689531D01*
X139270Y689473D01*
X139333Y689412D01*
X139392Y689348D01*
X139449Y689281D01*
X139503Y689213D01*
X139554Y689141D01*
X139601Y689068D01*
X139646Y688993D01*
X139687Y688915D01*
X139724Y688836D01*
X139758Y688756D01*
X139788Y688674D01*
X139815Y688591D01*
X139838Y688506D01*
X139857Y688421D01*
X139872Y688335D01*
X139884Y688248D01*
X139892Y688161D01*
X139896Y688074D01*
X139896Y687986D01*
X139892Y687899D01*
X139884Y687812D01*
X139872Y687725D01*
X139857Y687639D01*
X139838Y687554D01*
X139815Y687469D01*
X139788Y687386D01*
X139758Y687304D01*
X139724Y687224D01*
X139687Y687145D01*
X139646Y687067D01*
X139601Y686992D01*
X139554Y686919D01*
X139503Y686847D01*
X139449Y686779D01*
X139392Y686712D01*
X139333Y686648D01*
X139270Y686587D01*
X139205Y686529D01*
X139137Y686473D01*
X139067Y686421D01*
X138995Y686372D01*
X138921Y686326D01*
X138844Y686283D01*
X138766Y686244D01*
X138686Y686209D01*
X138605Y686177D01*
X138522Y686148D01*
X138438Y686123D01*
X138354Y686102D01*
X138268Y686085D01*
X138182Y686071D01*
X138095Y686062D01*
X138007Y686056D01*
X137920Y686054D01*
X135945Y686054D01*
X135945Y693166D01*
X137920Y693166D01*
X137999Y693164D01*
X138077Y693158D01*
X138155Y693148D01*
X138233Y693135D01*
X138310Y693117D01*
X138386Y693096D01*
X138460Y693071D01*
X138534Y693042D01*
X138606Y693010D01*
X138676Y692974D01*
X138744Y692934D01*
X138810Y692891D01*
X138874Y692845D01*
X138936Y692796D01*
X138995Y692744D01*
X139051Y692689D01*
X139105Y692631D01*
X139155Y692571D01*
X139203Y692508D01*
X139247Y692443D01*
X139288Y692376D01*
X139326Y692307D01*
X139360Y692236D01*
X139391Y692163D01*
X139418Y692089D01*
X139441Y692014D01*
X139460Y691938D01*
X139476Y691860D01*
X139488Y691782D01*
X139496Y691704D01*
X139500Y691625D01*
X139500Y691547D01*
X139496Y691468D01*
X139488Y691390D01*
X139476Y691312D01*
X139460Y691234D01*
X139441Y691158D01*
X139418Y691083D01*
X139391Y691009D01*
X139360Y690936D01*
X139326Y690865D01*
X139288Y690796D01*
X139247Y690729D01*
X139203Y690664D01*
X139155Y690601D01*
X139105Y690541D01*
X139051Y690483D01*
X138995Y690428D01*
X138936Y690376D01*
X138874Y690327D01*
X138810Y690281D01*
X138744Y690238D01*
X138676Y690198D01*
X138606Y690162D01*
X138534Y690130D01*
X138460Y690101D01*
X138386Y690076D01*
X138310Y690055D01*
X138233Y690037D01*
X138155Y690024D01*
X138077Y690014D01*
X137999Y690008D01*
X137920Y690006D01*
X143769Y688820D02*
X145547Y688820D01*
X143769Y688820D02*
X143695Y688818D01*
X143622Y688812D01*
X143549Y688802D01*
X143477Y688789D01*
X143405Y688771D01*
X143335Y688750D01*
X143265Y688725D01*
X143198Y688696D01*
X143131Y688664D01*
X143067Y688629D01*
X143004Y688589D01*
X142944Y688547D01*
X142886Y688502D01*
X142831Y688453D01*
X142778Y688402D01*
X142728Y688348D01*
X142681Y688291D01*
X142637Y688232D01*
X142597Y688171D01*
X142559Y688107D01*
X142525Y688042D01*
X142495Y687975D01*
X142468Y687906D01*
X142445Y687836D01*
X142426Y687765D01*
X142410Y687693D01*
X142398Y687621D01*
X142390Y687547D01*
X142386Y687474D01*
X142386Y687400D01*
X142390Y687327D01*
X142398Y687253D01*
X142410Y687181D01*
X142426Y687109D01*
X142445Y687038D01*
X142468Y686968D01*
X142495Y686899D01*
X142525Y686832D01*
X142559Y686767D01*
X142597Y686703D01*
X142637Y686642D01*
X142681Y686583D01*
X142728Y686526D01*
X142778Y686472D01*
X142831Y686421D01*
X142886Y686372D01*
X142944Y686327D01*
X143004Y686285D01*
X143067Y686245D01*
X143131Y686210D01*
X143198Y686178D01*
X143265Y686149D01*
X143335Y686124D01*
X143405Y686103D01*
X143477Y686085D01*
X143549Y686072D01*
X143622Y686062D01*
X143695Y686056D01*
X143769Y686054D01*
X145547Y686054D01*
X145547Y689610D01*
X145545Y689676D01*
X145540Y689743D01*
X145530Y689808D01*
X145517Y689874D01*
X145501Y689938D01*
X145481Y690001D01*
X145457Y690063D01*
X145430Y690124D01*
X145399Y690183D01*
X145365Y690240D01*
X145328Y690296D01*
X145288Y690349D01*
X145246Y690400D01*
X145200Y690448D01*
X145152Y690494D01*
X145101Y690536D01*
X145048Y690576D01*
X144992Y690613D01*
X144935Y690647D01*
X144876Y690678D01*
X144815Y690705D01*
X144753Y690729D01*
X144690Y690749D01*
X144626Y690765D01*
X144560Y690778D01*
X144495Y690788D01*
X144428Y690793D01*
X144362Y690795D01*
X142782Y690795D01*
X148692Y693166D02*
X148692Y687239D01*
X148693Y687239D02*
X148695Y687173D01*
X148700Y687106D01*
X148710Y687041D01*
X148723Y686975D01*
X148739Y686911D01*
X148759Y686848D01*
X148783Y686786D01*
X148810Y686725D01*
X148841Y686666D01*
X148875Y686609D01*
X148912Y686553D01*
X148952Y686500D01*
X148994Y686449D01*
X149040Y686401D01*
X149088Y686355D01*
X149139Y686313D01*
X149192Y686273D01*
X149248Y686236D01*
X149305Y686202D01*
X149364Y686171D01*
X149425Y686144D01*
X149487Y686120D01*
X149550Y686100D01*
X149614Y686084D01*
X149680Y686071D01*
X149745Y686061D01*
X149812Y686056D01*
X149878Y686054D01*
X152350Y687239D02*
X152350Y693166D01*
X152350Y687239D02*
X152352Y687173D01*
X152357Y687106D01*
X152367Y687041D01*
X152380Y686975D01*
X152396Y686911D01*
X152416Y686848D01*
X152440Y686786D01*
X152467Y686725D01*
X152498Y686666D01*
X152532Y686609D01*
X152569Y686553D01*
X152609Y686500D01*
X152651Y686449D01*
X152697Y686401D01*
X152745Y686355D01*
X152796Y686313D01*
X152849Y686273D01*
X152905Y686236D01*
X152962Y686202D01*
X153021Y686171D01*
X153082Y686144D01*
X153144Y686120D01*
X153207Y686100D01*
X153271Y686084D01*
X153337Y686071D01*
X153402Y686061D01*
X153469Y686056D01*
X153535Y686054D01*
X159854Y686054D02*
X159854Y693166D01*
X161830Y693166D01*
X161916Y693164D01*
X162002Y693158D01*
X162088Y693149D01*
X162173Y693136D01*
X162258Y693119D01*
X162341Y693099D01*
X162424Y693075D01*
X162506Y693047D01*
X162586Y693016D01*
X162665Y692981D01*
X162742Y692943D01*
X162818Y692901D01*
X162892Y692857D01*
X162963Y692809D01*
X163033Y692758D01*
X163100Y692704D01*
X163165Y692647D01*
X163227Y692587D01*
X163287Y692525D01*
X163344Y692460D01*
X163398Y692393D01*
X163449Y692323D01*
X163497Y692252D01*
X163541Y692178D01*
X163583Y692102D01*
X163621Y692025D01*
X163656Y691946D01*
X163687Y691866D01*
X163715Y691784D01*
X163739Y691701D01*
X163759Y691618D01*
X163776Y691533D01*
X163789Y691448D01*
X163798Y691362D01*
X163804Y691276D01*
X163806Y691190D01*
X163806Y688030D01*
X163804Y687944D01*
X163798Y687858D01*
X163789Y687772D01*
X163776Y687687D01*
X163759Y687602D01*
X163739Y687519D01*
X163715Y687436D01*
X163687Y687354D01*
X163656Y687274D01*
X163621Y687195D01*
X163583Y687118D01*
X163541Y687042D01*
X163497Y686968D01*
X163449Y686897D01*
X163398Y686827D01*
X163344Y686760D01*
X163287Y686695D01*
X163227Y686633D01*
X163165Y686573D01*
X163100Y686516D01*
X163033Y686462D01*
X162963Y686411D01*
X162892Y686363D01*
X162818Y686319D01*
X162742Y686277D01*
X162665Y686239D01*
X162586Y686204D01*
X162506Y686173D01*
X162424Y686145D01*
X162341Y686121D01*
X162258Y686101D01*
X162173Y686084D01*
X162088Y686071D01*
X162002Y686062D01*
X161916Y686056D01*
X161830Y686054D01*
X159854Y686054D01*
X166859Y686054D02*
X166859Y690795D01*
X166662Y692771D02*
X166662Y693166D01*
X167057Y693166D01*
X167057Y692771D01*
X166662Y692771D01*
X170215Y688820D02*
X172190Y688030D01*
X170215Y688820D02*
X170157Y688845D01*
X170101Y688874D01*
X170046Y688906D01*
X169994Y688942D01*
X169944Y688981D01*
X169897Y689022D01*
X169852Y689067D01*
X169810Y689114D01*
X169771Y689163D01*
X169735Y689215D01*
X169702Y689269D01*
X169673Y689325D01*
X169647Y689383D01*
X169625Y689442D01*
X169607Y689503D01*
X169592Y689564D01*
X169581Y689626D01*
X169574Y689689D01*
X169571Y689752D01*
X169572Y689815D01*
X169577Y689878D01*
X169585Y689941D01*
X169598Y690003D01*
X169614Y690064D01*
X169634Y690124D01*
X169657Y690182D01*
X169684Y690239D01*
X169715Y690294D01*
X169749Y690348D01*
X169786Y690399D01*
X169826Y690447D01*
X169869Y690494D01*
X169915Y690537D01*
X169964Y690577D01*
X170015Y690615D01*
X170068Y690649D01*
X170123Y690680D01*
X170180Y690707D01*
X170238Y690731D01*
X170298Y690751D01*
X170359Y690767D01*
X170421Y690780D01*
X170484Y690789D01*
X170546Y690794D01*
X170610Y690795D01*
X170610Y690796D02*
X170741Y690792D01*
X170872Y690784D01*
X171002Y690773D01*
X171132Y690758D01*
X171262Y690738D01*
X171391Y690716D01*
X171519Y690689D01*
X171647Y690659D01*
X171773Y690625D01*
X171899Y690587D01*
X172023Y690546D01*
X172146Y690501D01*
X172268Y690452D01*
X172388Y690400D01*
X172190Y688029D02*
X172248Y688004D01*
X172304Y687975D01*
X172359Y687943D01*
X172411Y687907D01*
X172461Y687868D01*
X172508Y687827D01*
X172553Y687782D01*
X172595Y687735D01*
X172634Y687686D01*
X172670Y687634D01*
X172703Y687580D01*
X172732Y687524D01*
X172758Y687466D01*
X172780Y687407D01*
X172798Y687346D01*
X172813Y687285D01*
X172824Y687223D01*
X172831Y687160D01*
X172834Y687097D01*
X172833Y687034D01*
X172828Y686971D01*
X172820Y686908D01*
X172807Y686846D01*
X172791Y686785D01*
X172771Y686725D01*
X172748Y686667D01*
X172721Y686610D01*
X172690Y686555D01*
X172656Y686501D01*
X172619Y686450D01*
X172579Y686402D01*
X172536Y686355D01*
X172490Y686312D01*
X172441Y686272D01*
X172390Y686234D01*
X172337Y686200D01*
X172282Y686169D01*
X172225Y686142D01*
X172167Y686118D01*
X172107Y686098D01*
X172046Y686082D01*
X171984Y686069D01*
X171921Y686060D01*
X171859Y686055D01*
X171795Y686054D01*
X171637Y686058D01*
X171479Y686066D01*
X171321Y686077D01*
X171163Y686093D01*
X171005Y686112D01*
X170849Y686135D01*
X170692Y686161D01*
X170537Y686191D01*
X170382Y686225D01*
X170228Y686263D01*
X170075Y686304D01*
X169923Y686349D01*
X169772Y686397D01*
X169622Y686449D01*
X175827Y683683D02*
X175827Y690795D01*
X177802Y690795D01*
X177868Y690793D01*
X177935Y690788D01*
X178000Y690778D01*
X178066Y690765D01*
X178130Y690749D01*
X178193Y690729D01*
X178255Y690705D01*
X178316Y690678D01*
X178375Y690647D01*
X178432Y690613D01*
X178488Y690576D01*
X178541Y690536D01*
X178592Y690494D01*
X178640Y690448D01*
X178686Y690400D01*
X178728Y690349D01*
X178768Y690296D01*
X178805Y690240D01*
X178839Y690183D01*
X178870Y690124D01*
X178897Y690064D01*
X178920Y690001D01*
X178941Y689938D01*
X178957Y689874D01*
X178970Y689809D01*
X178980Y689743D01*
X178985Y689676D01*
X178987Y689610D01*
X178987Y687239D01*
X178985Y687173D01*
X178980Y687106D01*
X178970Y687041D01*
X178957Y686975D01*
X178941Y686911D01*
X178921Y686848D01*
X178897Y686786D01*
X178870Y686725D01*
X178839Y686666D01*
X178805Y686609D01*
X178768Y686553D01*
X178728Y686500D01*
X178686Y686449D01*
X178640Y686401D01*
X178592Y686355D01*
X178541Y686313D01*
X178488Y686273D01*
X178432Y686236D01*
X178375Y686202D01*
X178316Y686171D01*
X178255Y686144D01*
X178193Y686120D01*
X178130Y686100D01*
X178066Y686084D01*
X178000Y686071D01*
X177935Y686061D01*
X177868Y686056D01*
X177802Y686054D01*
X175827Y686054D01*
X182923Y686054D02*
X184899Y686054D01*
X182923Y686054D02*
X182857Y686056D01*
X182790Y686061D01*
X182725Y686071D01*
X182659Y686084D01*
X182595Y686100D01*
X182532Y686120D01*
X182470Y686144D01*
X182409Y686171D01*
X182350Y686202D01*
X182293Y686236D01*
X182237Y686273D01*
X182184Y686313D01*
X182133Y686355D01*
X182085Y686401D01*
X182039Y686449D01*
X181997Y686500D01*
X181957Y686553D01*
X181920Y686609D01*
X181886Y686666D01*
X181855Y686725D01*
X181828Y686786D01*
X181804Y686848D01*
X181784Y686911D01*
X181768Y686975D01*
X181755Y687041D01*
X181745Y687106D01*
X181740Y687173D01*
X181738Y687239D01*
X181738Y689215D01*
X181740Y689294D01*
X181746Y689372D01*
X181756Y689450D01*
X181769Y689528D01*
X181787Y689605D01*
X181808Y689681D01*
X181833Y689755D01*
X181862Y689829D01*
X181894Y689901D01*
X181930Y689971D01*
X181970Y690039D01*
X182013Y690105D01*
X182059Y690169D01*
X182108Y690231D01*
X182160Y690290D01*
X182215Y690346D01*
X182273Y690400D01*
X182333Y690450D01*
X182396Y690498D01*
X182461Y690542D01*
X182528Y690583D01*
X182597Y690621D01*
X182668Y690655D01*
X182741Y690686D01*
X182815Y690713D01*
X182890Y690736D01*
X182966Y690755D01*
X183044Y690771D01*
X183122Y690783D01*
X183200Y690791D01*
X183279Y690795D01*
X183357Y690795D01*
X183436Y690791D01*
X183514Y690783D01*
X183592Y690771D01*
X183670Y690755D01*
X183746Y690736D01*
X183821Y690713D01*
X183895Y690686D01*
X183968Y690655D01*
X184039Y690621D01*
X184108Y690583D01*
X184175Y690542D01*
X184240Y690498D01*
X184303Y690450D01*
X184363Y690400D01*
X184421Y690346D01*
X184476Y690290D01*
X184528Y690231D01*
X184577Y690169D01*
X184623Y690105D01*
X184666Y690039D01*
X184706Y689971D01*
X184742Y689901D01*
X184774Y689829D01*
X184803Y689755D01*
X184828Y689681D01*
X184849Y689605D01*
X184867Y689528D01*
X184880Y689450D01*
X184890Y689372D01*
X184896Y689294D01*
X184898Y689215D01*
X184899Y689215D02*
X184899Y688425D01*
X181738Y688425D01*
X187910Y686054D02*
X187910Y690795D01*
X189885Y690795D01*
X189951Y690793D01*
X190018Y690788D01*
X190083Y690778D01*
X190149Y690765D01*
X190213Y690749D01*
X190276Y690729D01*
X190338Y690705D01*
X190399Y690678D01*
X190458Y690647D01*
X190515Y690613D01*
X190571Y690576D01*
X190624Y690536D01*
X190675Y690494D01*
X190723Y690448D01*
X190769Y690400D01*
X190811Y690349D01*
X190851Y690296D01*
X190888Y690240D01*
X190922Y690183D01*
X190953Y690124D01*
X190980Y690064D01*
X191003Y690001D01*
X191024Y689938D01*
X191040Y689874D01*
X191053Y689809D01*
X191063Y689743D01*
X191068Y689676D01*
X191070Y689610D01*
X191071Y689610D02*
X191071Y686054D01*
X194675Y688820D02*
X196650Y688030D01*
X194675Y688820D02*
X194617Y688845D01*
X194561Y688874D01*
X194506Y688906D01*
X194454Y688942D01*
X194404Y688981D01*
X194357Y689022D01*
X194312Y689067D01*
X194270Y689114D01*
X194231Y689163D01*
X194195Y689215D01*
X194162Y689269D01*
X194133Y689325D01*
X194107Y689383D01*
X194085Y689442D01*
X194067Y689503D01*
X194052Y689564D01*
X194041Y689626D01*
X194034Y689689D01*
X194031Y689752D01*
X194032Y689815D01*
X194037Y689878D01*
X194045Y689941D01*
X194058Y690003D01*
X194074Y690064D01*
X194094Y690124D01*
X194117Y690182D01*
X194144Y690239D01*
X194175Y690294D01*
X194209Y690348D01*
X194246Y690399D01*
X194286Y690447D01*
X194329Y690494D01*
X194375Y690537D01*
X194424Y690577D01*
X194475Y690615D01*
X194528Y690649D01*
X194583Y690680D01*
X194640Y690707D01*
X194698Y690731D01*
X194758Y690751D01*
X194819Y690767D01*
X194881Y690780D01*
X194944Y690789D01*
X195006Y690794D01*
X195070Y690795D01*
X195070Y690796D02*
X195201Y690792D01*
X195332Y690784D01*
X195462Y690773D01*
X195592Y690758D01*
X195722Y690738D01*
X195851Y690716D01*
X195979Y690689D01*
X196107Y690659D01*
X196233Y690625D01*
X196359Y690587D01*
X196483Y690546D01*
X196606Y690501D01*
X196728Y690452D01*
X196848Y690400D01*
X196650Y688029D02*
X196708Y688004D01*
X196764Y687975D01*
X196819Y687943D01*
X196871Y687907D01*
X196921Y687868D01*
X196968Y687827D01*
X197013Y687782D01*
X197055Y687735D01*
X197094Y687686D01*
X197130Y687634D01*
X197163Y687580D01*
X197192Y687524D01*
X197218Y687466D01*
X197240Y687407D01*
X197258Y687346D01*
X197273Y687285D01*
X197284Y687223D01*
X197291Y687160D01*
X197294Y687097D01*
X197293Y687034D01*
X197288Y686971D01*
X197280Y686908D01*
X197267Y686846D01*
X197251Y686785D01*
X197231Y686725D01*
X197208Y686667D01*
X197181Y686610D01*
X197150Y686555D01*
X197116Y686501D01*
X197079Y686450D01*
X197039Y686402D01*
X196996Y686355D01*
X196950Y686312D01*
X196901Y686272D01*
X196850Y686234D01*
X196797Y686200D01*
X196742Y686169D01*
X196685Y686142D01*
X196627Y686118D01*
X196567Y686098D01*
X196506Y686082D01*
X196444Y686069D01*
X196381Y686060D01*
X196319Y686055D01*
X196255Y686054D01*
X196097Y686058D01*
X195939Y686066D01*
X195781Y686077D01*
X195623Y686093D01*
X195465Y686112D01*
X195309Y686135D01*
X195152Y686161D01*
X194997Y686191D01*
X194842Y686225D01*
X194688Y686263D01*
X194535Y686304D01*
X194383Y686349D01*
X194232Y686397D01*
X194082Y686449D01*
X201211Y686054D02*
X203187Y686054D01*
X201211Y686054D02*
X201145Y686056D01*
X201078Y686061D01*
X201013Y686071D01*
X200947Y686084D01*
X200883Y686100D01*
X200820Y686120D01*
X200758Y686144D01*
X200697Y686171D01*
X200638Y686202D01*
X200581Y686236D01*
X200525Y686273D01*
X200472Y686313D01*
X200421Y686355D01*
X200373Y686401D01*
X200327Y686449D01*
X200285Y686500D01*
X200245Y686553D01*
X200208Y686609D01*
X200174Y686666D01*
X200143Y686725D01*
X200116Y686786D01*
X200092Y686848D01*
X200072Y686911D01*
X200056Y686975D01*
X200043Y687041D01*
X200033Y687106D01*
X200028Y687173D01*
X200026Y687239D01*
X200026Y689215D01*
X200028Y689294D01*
X200034Y689372D01*
X200044Y689450D01*
X200057Y689528D01*
X200075Y689605D01*
X200096Y689681D01*
X200121Y689755D01*
X200150Y689829D01*
X200182Y689901D01*
X200218Y689971D01*
X200258Y690039D01*
X200301Y690105D01*
X200347Y690169D01*
X200396Y690231D01*
X200448Y690290D01*
X200503Y690346D01*
X200561Y690400D01*
X200621Y690450D01*
X200684Y690498D01*
X200749Y690542D01*
X200816Y690583D01*
X200885Y690621D01*
X200956Y690655D01*
X201029Y690686D01*
X201103Y690713D01*
X201178Y690736D01*
X201254Y690755D01*
X201332Y690771D01*
X201410Y690783D01*
X201488Y690791D01*
X201567Y690795D01*
X201645Y690795D01*
X201724Y690791D01*
X201802Y690783D01*
X201880Y690771D01*
X201958Y690755D01*
X202034Y690736D01*
X202109Y690713D01*
X202183Y690686D01*
X202256Y690655D01*
X202327Y690621D01*
X202396Y690583D01*
X202463Y690542D01*
X202528Y690498D01*
X202591Y690450D01*
X202651Y690400D01*
X202709Y690346D01*
X202764Y690290D01*
X202816Y690231D01*
X202865Y690169D01*
X202911Y690105D01*
X202954Y690039D01*
X202994Y689971D01*
X203030Y689901D01*
X203062Y689829D01*
X203091Y689755D01*
X203116Y689681D01*
X203137Y689605D01*
X203155Y689528D01*
X203168Y689450D01*
X203178Y689372D01*
X203184Y689294D01*
X203186Y689215D01*
X203187Y689215D02*
X203187Y688425D01*
X200026Y688425D01*
X206234Y686054D02*
X206234Y690795D01*
X208605Y690795D01*
X208605Y690005D01*
X51054Y667766D02*
X51054Y660654D01*
X51054Y667766D02*
X53030Y667766D01*
X53117Y667764D01*
X53205Y667758D01*
X53292Y667749D01*
X53378Y667735D01*
X53464Y667718D01*
X53548Y667697D01*
X53632Y667672D01*
X53715Y667643D01*
X53796Y667611D01*
X53876Y667576D01*
X53954Y667537D01*
X54031Y667494D01*
X54105Y667448D01*
X54177Y667399D01*
X54247Y667347D01*
X54315Y667291D01*
X54380Y667233D01*
X54443Y667172D01*
X54502Y667108D01*
X54559Y667041D01*
X54613Y666973D01*
X54664Y666901D01*
X54711Y666828D01*
X54756Y666753D01*
X54797Y666675D01*
X54834Y666596D01*
X54868Y666516D01*
X54898Y666434D01*
X54925Y666351D01*
X54948Y666266D01*
X54967Y666181D01*
X54982Y666095D01*
X54994Y666008D01*
X55002Y665921D01*
X55006Y665834D01*
X55006Y665746D01*
X55002Y665659D01*
X54994Y665572D01*
X54982Y665485D01*
X54967Y665399D01*
X54948Y665314D01*
X54925Y665229D01*
X54898Y665146D01*
X54868Y665064D01*
X54834Y664984D01*
X54797Y664905D01*
X54756Y664827D01*
X54711Y664752D01*
X54664Y664679D01*
X54613Y664607D01*
X54559Y664539D01*
X54502Y664472D01*
X54443Y664408D01*
X54380Y664347D01*
X54315Y664289D01*
X54247Y664233D01*
X54177Y664181D01*
X54105Y664132D01*
X54031Y664086D01*
X53954Y664043D01*
X53876Y664004D01*
X53796Y663969D01*
X53715Y663937D01*
X53632Y663908D01*
X53548Y663883D01*
X53464Y663862D01*
X53378Y663845D01*
X53292Y663831D01*
X53205Y663822D01*
X53117Y663816D01*
X53030Y663814D01*
X53030Y663815D02*
X51054Y663815D01*
X53425Y663815D02*
X55005Y660654D01*
X58995Y660654D02*
X60970Y660654D01*
X58995Y660654D02*
X58929Y660656D01*
X58862Y660661D01*
X58797Y660671D01*
X58731Y660684D01*
X58667Y660700D01*
X58604Y660720D01*
X58542Y660744D01*
X58481Y660771D01*
X58422Y660802D01*
X58365Y660836D01*
X58309Y660873D01*
X58256Y660913D01*
X58205Y660955D01*
X58157Y661001D01*
X58111Y661049D01*
X58069Y661100D01*
X58029Y661153D01*
X57992Y661209D01*
X57958Y661266D01*
X57927Y661325D01*
X57900Y661386D01*
X57876Y661448D01*
X57856Y661511D01*
X57840Y661575D01*
X57827Y661641D01*
X57817Y661706D01*
X57812Y661773D01*
X57810Y661839D01*
X57809Y661839D02*
X57809Y663815D01*
X57810Y663815D02*
X57812Y663894D01*
X57818Y663972D01*
X57828Y664050D01*
X57841Y664128D01*
X57859Y664205D01*
X57880Y664281D01*
X57905Y664355D01*
X57934Y664429D01*
X57966Y664501D01*
X58002Y664571D01*
X58042Y664639D01*
X58085Y664705D01*
X58131Y664769D01*
X58180Y664831D01*
X58232Y664890D01*
X58287Y664946D01*
X58345Y665000D01*
X58405Y665050D01*
X58468Y665098D01*
X58533Y665142D01*
X58600Y665183D01*
X58669Y665221D01*
X58740Y665255D01*
X58813Y665286D01*
X58887Y665313D01*
X58962Y665336D01*
X59038Y665355D01*
X59116Y665371D01*
X59194Y665383D01*
X59272Y665391D01*
X59351Y665395D01*
X59429Y665395D01*
X59508Y665391D01*
X59586Y665383D01*
X59664Y665371D01*
X59742Y665355D01*
X59818Y665336D01*
X59893Y665313D01*
X59967Y665286D01*
X60040Y665255D01*
X60111Y665221D01*
X60180Y665183D01*
X60247Y665142D01*
X60312Y665098D01*
X60375Y665050D01*
X60435Y665000D01*
X60493Y664946D01*
X60548Y664890D01*
X60600Y664831D01*
X60649Y664769D01*
X60695Y664705D01*
X60738Y664639D01*
X60778Y664571D01*
X60814Y664501D01*
X60846Y664429D01*
X60875Y664355D01*
X60900Y664281D01*
X60921Y664205D01*
X60939Y664128D01*
X60952Y664050D01*
X60962Y663972D01*
X60968Y663894D01*
X60970Y663815D01*
X60970Y663025D01*
X57809Y663025D01*
X63524Y665395D02*
X65105Y660654D01*
X66685Y665395D01*
X72959Y666186D02*
X74935Y667766D01*
X74935Y660654D01*
X76910Y660654D02*
X72959Y660654D01*
X81105Y663420D02*
X82883Y663420D01*
X81105Y663420D02*
X81031Y663418D01*
X80958Y663412D01*
X80885Y663402D01*
X80813Y663389D01*
X80741Y663371D01*
X80671Y663350D01*
X80601Y663325D01*
X80534Y663296D01*
X80467Y663264D01*
X80403Y663229D01*
X80340Y663189D01*
X80280Y663147D01*
X80222Y663102D01*
X80167Y663053D01*
X80114Y663002D01*
X80064Y662948D01*
X80017Y662891D01*
X79973Y662832D01*
X79933Y662771D01*
X79895Y662707D01*
X79861Y662642D01*
X79831Y662575D01*
X79804Y662506D01*
X79781Y662436D01*
X79762Y662365D01*
X79746Y662293D01*
X79734Y662221D01*
X79726Y662147D01*
X79722Y662074D01*
X79722Y662000D01*
X79726Y661927D01*
X79734Y661853D01*
X79746Y661781D01*
X79762Y661709D01*
X79781Y661638D01*
X79804Y661568D01*
X79831Y661499D01*
X79861Y661432D01*
X79895Y661367D01*
X79933Y661303D01*
X79973Y661242D01*
X80017Y661183D01*
X80064Y661126D01*
X80114Y661072D01*
X80167Y661021D01*
X80222Y660972D01*
X80280Y660927D01*
X80340Y660885D01*
X80403Y660845D01*
X80467Y660810D01*
X80534Y660778D01*
X80601Y660749D01*
X80671Y660724D01*
X80741Y660703D01*
X80813Y660685D01*
X80885Y660672D01*
X80958Y660662D01*
X81031Y660656D01*
X81105Y660654D01*
X82883Y660654D01*
X82883Y664210D01*
X82881Y664276D01*
X82876Y664343D01*
X82866Y664408D01*
X82853Y664474D01*
X82837Y664538D01*
X82817Y664601D01*
X82793Y664663D01*
X82766Y664724D01*
X82735Y664783D01*
X82701Y664840D01*
X82664Y664896D01*
X82624Y664949D01*
X82582Y665000D01*
X82536Y665048D01*
X82488Y665094D01*
X82437Y665136D01*
X82384Y665176D01*
X82328Y665213D01*
X82271Y665247D01*
X82212Y665278D01*
X82151Y665305D01*
X82089Y665329D01*
X82026Y665349D01*
X81962Y665365D01*
X81896Y665378D01*
X81831Y665388D01*
X81764Y665393D01*
X81698Y665395D01*
X80118Y665395D01*
X51054Y642366D02*
X51054Y635254D01*
X54215Y635254D01*
X57078Y635254D02*
X57078Y642366D01*
X59054Y642366D01*
X59141Y642364D01*
X59229Y642358D01*
X59316Y642349D01*
X59402Y642335D01*
X59488Y642318D01*
X59572Y642297D01*
X59656Y642272D01*
X59739Y642243D01*
X59820Y642211D01*
X59900Y642176D01*
X59978Y642137D01*
X60055Y642094D01*
X60129Y642048D01*
X60201Y641999D01*
X60271Y641947D01*
X60339Y641891D01*
X60404Y641833D01*
X60467Y641772D01*
X60526Y641708D01*
X60583Y641641D01*
X60637Y641573D01*
X60688Y641501D01*
X60735Y641428D01*
X60780Y641353D01*
X60821Y641275D01*
X60858Y641196D01*
X60892Y641116D01*
X60922Y641034D01*
X60949Y640951D01*
X60972Y640866D01*
X60991Y640781D01*
X61006Y640695D01*
X61018Y640608D01*
X61026Y640521D01*
X61030Y640434D01*
X61030Y640346D01*
X61026Y640259D01*
X61018Y640172D01*
X61006Y640085D01*
X60991Y639999D01*
X60972Y639914D01*
X60949Y639829D01*
X60922Y639746D01*
X60892Y639664D01*
X60858Y639584D01*
X60821Y639505D01*
X60780Y639427D01*
X60735Y639352D01*
X60688Y639279D01*
X60637Y639207D01*
X60583Y639139D01*
X60526Y639072D01*
X60467Y639008D01*
X60404Y638947D01*
X60339Y638889D01*
X60271Y638833D01*
X60201Y638781D01*
X60129Y638732D01*
X60055Y638686D01*
X59978Y638643D01*
X59900Y638604D01*
X59820Y638569D01*
X59739Y638537D01*
X59656Y638508D01*
X59572Y638483D01*
X59488Y638462D01*
X59402Y638445D01*
X59316Y638431D01*
X59229Y638422D01*
X59141Y638416D01*
X59054Y638414D01*
X59054Y638415D02*
X57078Y638415D01*
X69445Y642366D02*
X69527Y642364D01*
X69609Y642358D01*
X69691Y642349D01*
X69772Y642336D01*
X69852Y642319D01*
X69932Y642298D01*
X70010Y642274D01*
X70087Y642246D01*
X70163Y642215D01*
X70238Y642180D01*
X70310Y642141D01*
X70381Y642100D01*
X70450Y642055D01*
X70516Y642007D01*
X70581Y641956D01*
X70643Y641902D01*
X70702Y641845D01*
X70759Y641786D01*
X70813Y641724D01*
X70864Y641659D01*
X70912Y641593D01*
X70957Y641524D01*
X70998Y641453D01*
X71037Y641381D01*
X71072Y641306D01*
X71103Y641230D01*
X71131Y641153D01*
X71155Y641075D01*
X71176Y640995D01*
X71193Y640915D01*
X71206Y640834D01*
X71215Y640752D01*
X71221Y640670D01*
X71223Y640588D01*
X69445Y642366D02*
X69352Y642364D01*
X69260Y642358D01*
X69168Y642349D01*
X69076Y642336D01*
X68985Y642319D01*
X68895Y642299D01*
X68805Y642275D01*
X68717Y642247D01*
X68629Y642215D01*
X68544Y642181D01*
X68459Y642142D01*
X68377Y642101D01*
X68296Y642056D01*
X68216Y642007D01*
X68139Y641956D01*
X68064Y641902D01*
X67992Y641844D01*
X67922Y641784D01*
X67854Y641720D01*
X67789Y641655D01*
X67726Y641586D01*
X67667Y641515D01*
X67610Y641442D01*
X67556Y641366D01*
X67506Y641289D01*
X67458Y641209D01*
X67414Y641128D01*
X67374Y641044D01*
X67336Y640960D01*
X67302Y640873D01*
X67272Y640786D01*
X70630Y639205D02*
X70691Y639266D01*
X70749Y639329D01*
X70804Y639395D01*
X70857Y639463D01*
X70906Y639534D01*
X70951Y639606D01*
X70994Y639681D01*
X71033Y639757D01*
X71069Y639836D01*
X71101Y639915D01*
X71129Y639996D01*
X71154Y640079D01*
X71175Y640162D01*
X71192Y640246D01*
X71206Y640331D01*
X71215Y640416D01*
X71221Y640502D01*
X71223Y640588D01*
X70631Y639205D02*
X67272Y635254D01*
X71223Y635254D01*
X74130Y638810D02*
X74132Y638958D01*
X74137Y639105D01*
X74147Y639253D01*
X74160Y639400D01*
X74176Y639547D01*
X74197Y639693D01*
X74221Y639839D01*
X74249Y639984D01*
X74280Y640128D01*
X74315Y640271D01*
X74354Y640414D01*
X74396Y640555D01*
X74442Y640696D01*
X74491Y640835D01*
X74544Y640973D01*
X74600Y641110D01*
X74660Y641245D01*
X74723Y641378D01*
X74749Y641449D01*
X74779Y641518D01*
X74813Y641586D01*
X74850Y641652D01*
X74890Y641716D01*
X74934Y641778D01*
X74980Y641837D01*
X75030Y641894D01*
X75083Y641948D01*
X75138Y642000D01*
X75196Y642048D01*
X75256Y642094D01*
X75319Y642136D01*
X75384Y642175D01*
X75450Y642211D01*
X75519Y642243D01*
X75588Y642271D01*
X75660Y642296D01*
X75732Y642317D01*
X75806Y642335D01*
X75880Y642348D01*
X75955Y642358D01*
X76030Y642364D01*
X76106Y642366D01*
X76182Y642364D01*
X76257Y642358D01*
X76332Y642348D01*
X76406Y642335D01*
X76480Y642317D01*
X76552Y642296D01*
X76623Y642271D01*
X76693Y642243D01*
X76762Y642211D01*
X76828Y642175D01*
X76893Y642136D01*
X76956Y642094D01*
X77016Y642048D01*
X77074Y642000D01*
X77129Y641948D01*
X77182Y641894D01*
X77232Y641837D01*
X77278Y641778D01*
X77322Y641716D01*
X77362Y641652D01*
X77399Y641586D01*
X77433Y641518D01*
X77463Y641449D01*
X77489Y641378D01*
X77488Y641378D02*
X77551Y641245D01*
X77611Y641110D01*
X77667Y640973D01*
X77720Y640835D01*
X77769Y640696D01*
X77815Y640555D01*
X77857Y640414D01*
X77896Y640271D01*
X77931Y640128D01*
X77962Y639984D01*
X77990Y639839D01*
X78014Y639693D01*
X78035Y639547D01*
X78051Y639400D01*
X78064Y639253D01*
X78074Y639105D01*
X78079Y638958D01*
X78081Y638810D01*
X74130Y638810D02*
X74132Y638662D01*
X74137Y638515D01*
X74147Y638367D01*
X74160Y638220D01*
X74176Y638073D01*
X74197Y637927D01*
X74221Y637782D01*
X74249Y637636D01*
X74280Y637492D01*
X74315Y637349D01*
X74354Y637206D01*
X74396Y637065D01*
X74442Y636924D01*
X74491Y636785D01*
X74544Y636647D01*
X74600Y636510D01*
X74660Y636375D01*
X74723Y636242D01*
X74749Y636171D01*
X74779Y636102D01*
X74813Y636034D01*
X74850Y635968D01*
X74890Y635904D01*
X74934Y635842D01*
X74980Y635783D01*
X75030Y635726D01*
X75083Y635672D01*
X75138Y635620D01*
X75196Y635572D01*
X75256Y635526D01*
X75319Y635484D01*
X75384Y635445D01*
X75450Y635409D01*
X75519Y635377D01*
X75589Y635349D01*
X75660Y635324D01*
X75732Y635303D01*
X75806Y635285D01*
X75880Y635272D01*
X75955Y635262D01*
X76030Y635256D01*
X76106Y635254D01*
X77488Y636242D02*
X77551Y636375D01*
X77611Y636510D01*
X77667Y636647D01*
X77720Y636785D01*
X77769Y636924D01*
X77815Y637065D01*
X77857Y637206D01*
X77896Y637349D01*
X77931Y637492D01*
X77962Y637636D01*
X77990Y637782D01*
X78014Y637927D01*
X78035Y638073D01*
X78051Y638220D01*
X78064Y638367D01*
X78074Y638515D01*
X78079Y638662D01*
X78081Y638810D01*
X77489Y636242D02*
X77463Y636171D01*
X77433Y636102D01*
X77399Y636034D01*
X77362Y635968D01*
X77322Y635904D01*
X77278Y635842D01*
X77232Y635783D01*
X77182Y635726D01*
X77129Y635672D01*
X77074Y635620D01*
X77016Y635572D01*
X76956Y635526D01*
X76893Y635484D01*
X76828Y635445D01*
X76762Y635409D01*
X76693Y635377D01*
X76623Y635349D01*
X76552Y635324D01*
X76480Y635303D01*
X76406Y635285D01*
X76332Y635272D01*
X76257Y635262D01*
X76182Y635256D01*
X76106Y635254D01*
X74525Y636834D02*
X77686Y640786D01*
X80988Y640786D02*
X82964Y642366D01*
X82964Y635254D01*
X84939Y635254D02*
X80988Y635254D01*
X89426Y638415D02*
X91797Y638415D01*
X89426Y638415D02*
X89348Y638417D01*
X89271Y638423D01*
X89194Y638432D01*
X89118Y638445D01*
X89042Y638462D01*
X88967Y638483D01*
X88894Y638507D01*
X88821Y638535D01*
X88750Y638567D01*
X88681Y638602D01*
X88614Y638640D01*
X88548Y638681D01*
X88485Y638726D01*
X88424Y638774D01*
X88365Y638824D01*
X88309Y638878D01*
X88255Y638934D01*
X88205Y638993D01*
X88157Y639054D01*
X88112Y639117D01*
X88071Y639183D01*
X88033Y639250D01*
X87998Y639319D01*
X87966Y639390D01*
X87938Y639463D01*
X87914Y639536D01*
X87893Y639611D01*
X87876Y639687D01*
X87863Y639763D01*
X87854Y639840D01*
X87848Y639917D01*
X87846Y639995D01*
X87846Y640390D01*
X87848Y640477D01*
X87854Y640565D01*
X87863Y640652D01*
X87877Y640738D01*
X87894Y640824D01*
X87915Y640908D01*
X87940Y640992D01*
X87969Y641075D01*
X88001Y641156D01*
X88036Y641236D01*
X88075Y641314D01*
X88118Y641391D01*
X88164Y641465D01*
X88213Y641537D01*
X88265Y641607D01*
X88321Y641675D01*
X88379Y641740D01*
X88440Y641803D01*
X88504Y641862D01*
X88571Y641919D01*
X88639Y641973D01*
X88711Y642024D01*
X88784Y642071D01*
X88859Y642116D01*
X88937Y642157D01*
X89016Y642194D01*
X89096Y642228D01*
X89178Y642258D01*
X89261Y642285D01*
X89346Y642308D01*
X89431Y642327D01*
X89517Y642342D01*
X89604Y642354D01*
X89691Y642362D01*
X89778Y642366D01*
X89866Y642366D01*
X89953Y642362D01*
X90040Y642354D01*
X90127Y642342D01*
X90213Y642327D01*
X90298Y642308D01*
X90383Y642285D01*
X90466Y642258D01*
X90548Y642228D01*
X90628Y642194D01*
X90707Y642157D01*
X90785Y642116D01*
X90860Y642071D01*
X90933Y642024D01*
X91005Y641973D01*
X91073Y641919D01*
X91140Y641862D01*
X91204Y641803D01*
X91265Y641740D01*
X91323Y641675D01*
X91379Y641607D01*
X91431Y641537D01*
X91480Y641465D01*
X91526Y641391D01*
X91569Y641314D01*
X91608Y641236D01*
X91643Y641156D01*
X91675Y641075D01*
X91704Y640992D01*
X91729Y640908D01*
X91750Y640824D01*
X91767Y640738D01*
X91781Y640652D01*
X91790Y640565D01*
X91796Y640477D01*
X91798Y640390D01*
X91797Y640390D02*
X91797Y638415D01*
X91795Y638305D01*
X91789Y638194D01*
X91780Y638085D01*
X91766Y637975D01*
X91749Y637866D01*
X91728Y637758D01*
X91703Y637650D01*
X91675Y637544D01*
X91642Y637438D01*
X91606Y637334D01*
X91567Y637231D01*
X91524Y637129D01*
X91477Y637029D01*
X91427Y636931D01*
X91374Y636835D01*
X91317Y636740D01*
X91257Y636647D01*
X91193Y636557D01*
X91127Y636469D01*
X91057Y636383D01*
X90985Y636300D01*
X90910Y636219D01*
X90832Y636141D01*
X90751Y636066D01*
X90668Y635994D01*
X90582Y635924D01*
X90494Y635858D01*
X90404Y635794D01*
X90311Y635734D01*
X90216Y635677D01*
X90120Y635624D01*
X90022Y635574D01*
X89922Y635527D01*
X89820Y635484D01*
X89717Y635445D01*
X89613Y635409D01*
X89507Y635376D01*
X89401Y635348D01*
X89293Y635323D01*
X89185Y635302D01*
X89076Y635285D01*
X88966Y635271D01*
X88857Y635262D01*
X88746Y635256D01*
X88636Y635254D01*
D11*
X241300Y299200D03*
X241300Y234200D03*
D12*
X871900Y238500D03*
D13*
X871900Y263900D03*
X897300Y238500D03*
X897300Y263900D03*
X922700Y238500D03*
X922700Y263900D03*
X948100Y238500D03*
X948100Y263900D03*
X973500Y238500D03*
X973500Y263900D03*
X998900Y238500D03*
X998900Y263900D03*
X1024300Y238500D03*
X1024300Y263900D03*
X1049700Y238500D03*
X1049700Y263900D03*
X1075100Y238500D03*
X1075100Y263900D03*
X1100500Y238500D03*
X1100500Y263900D03*
X1125900Y238500D03*
X1125900Y263900D03*
X1151300Y238500D03*
X1151300Y263900D03*
X1176700Y238500D03*
X1176700Y263900D03*
X1202100Y238500D03*
X1202100Y263900D03*
X1227500Y238500D03*
X1227500Y263900D03*
X1252900Y238500D03*
X1252900Y263900D03*
X1278300Y238500D03*
X1278300Y263900D03*
X1303700Y238500D03*
X1303700Y263900D03*
D12*
X871900Y492500D03*
D13*
X871900Y517900D03*
X897300Y492500D03*
X897300Y517900D03*
X922700Y492500D03*
X922700Y517900D03*
X948100Y492500D03*
X948100Y517900D03*
X973500Y492500D03*
X973500Y517900D03*
X998900Y492500D03*
X998900Y517900D03*
X1024300Y492500D03*
X1024300Y517900D03*
X1049700Y492500D03*
X1049700Y517900D03*
X1075100Y492500D03*
X1075100Y517900D03*
X1100500Y492500D03*
X1100500Y517900D03*
X1125900Y492500D03*
X1125900Y517900D03*
X1151300Y492500D03*
X1151300Y517900D03*
X1176700Y492500D03*
X1176700Y517900D03*
X1202100Y492500D03*
X1202100Y517900D03*
X1227500Y492500D03*
X1227500Y517900D03*
X1252900Y492500D03*
X1252900Y517900D03*
X1278300Y492500D03*
X1278300Y517900D03*
X1303700Y492500D03*
X1303700Y517900D03*
D14*
X1041400Y601980D02*
X1041400Y617220D01*
X1066800Y617220D02*
X1066800Y601980D01*
X1092200Y601980D02*
X1092200Y617220D01*
X330200Y109220D02*
X330200Y93980D01*
X355600Y93980D02*
X355600Y109220D01*
X381000Y109220D02*
X381000Y93980D01*
D15*
X25400Y25400D03*
X76200Y584200D03*
X1270000Y584200D03*
D16*
X1295400Y76200D03*
X1295400Y609600D03*
X50800Y609600D03*
X50800Y50800D03*
D17*
X1115994Y502406D02*
X1125900Y492500D01*
X1041400Y609600D02*
X1041400Y631229D01*
X1088097Y677926D01*
X1115994Y677926D02*
X1115994Y502406D01*
X1115994Y677926D02*
X1088097Y677926D01*
X241300Y299200D02*
X190500Y248400D01*
X190500Y225592D01*
X178626Y213718D01*
X178626Y151574D01*
X279400Y50800D01*
X1155409Y50800D01*
X1395394Y290785D01*
X1152785Y290785D01*
X1125900Y263900D01*
X1016000Y177800D02*
X616621Y177800D01*
X330200Y101600D02*
X330200Y62777D01*
X326097Y58674D01*
X497495Y58674D02*
X616621Y177800D01*
X497495Y58674D02*
X326097Y58674D01*
X1016000Y177800D02*
X1049700Y211500D01*
X1049700Y238500D01*
X1320800Y584200D02*
X1295400Y609600D01*
X1320800Y584200D02*
X1320800Y457200D01*
X1117600Y457200D01*
X1117600Y484200D01*
X1125900Y492500D01*
X1295400Y152400D02*
X1295400Y76200D01*
X1295400Y152400D02*
X1473200Y330200D01*
X1422400Y381000D01*
X1193800Y381000D01*
X1117600Y304800D01*
X1117600Y272200D01*
X1125900Y263900D01*
X965200Y609600D02*
X50800Y609600D01*
X1270000Y711200D02*
X1371600Y609600D01*
X1371600Y431800D01*
X1092200Y431800D01*
X1075100Y448900D01*
X1075100Y467100D01*
X1049700Y492500D01*
X965200Y609600D02*
X1066800Y711200D01*
X1270000Y711200D01*
X203200Y50800D02*
X50800Y50800D01*
X203200Y50800D02*
X217678Y36322D01*
X1497078Y36322D02*
X1497078Y357122D01*
X1447800Y406400D01*
X1016000Y406400D01*
X1016000Y458800D02*
X1049700Y492500D01*
X1497078Y36322D02*
X217678Y36322D01*
X1016000Y406400D02*
X1016000Y458800D01*
X485152Y205752D02*
X381000Y101600D01*
X485152Y205752D02*
X624769Y205752D01*
X708317Y289300D01*
X998900Y289300D01*
X1024300Y263900D01*
D18*
X613600Y234200D02*
X241300Y234200D01*
D19*
X613600Y234200D02*
X615200Y234200D01*
D18*
X838200Y457200D02*
X889000Y457200D01*
X897300Y465500D01*
X897300Y492500D01*
X838200Y457200D02*
X615200Y234200D01*
D17*
X1092200Y585800D02*
X1092200Y609600D01*
X1092200Y585800D02*
X1034206Y527806D01*
X1034206Y502406D02*
X1024300Y492500D01*
X1034206Y502406D02*
X1034206Y527806D01*
D18*
X1066800Y584200D02*
X1066800Y609600D01*
X1066800Y584200D02*
X1049205Y566605D01*
X906595Y566605D01*
X883291Y543300D01*
X883291Y503891D01*
X871900Y492500D01*
X871900Y517900D02*
X797300Y517900D01*
X336018Y127000D02*
X336018Y121182D01*
X355600Y101600D01*
X336018Y127000D02*
X283274Y179744D01*
X522426Y243026D02*
X797300Y517900D01*
X522426Y243026D02*
X257874Y243026D01*
X283274Y179744D02*
X205144Y179744D01*
X203200Y177800D01*
X190500Y190500D01*
X190500Y215900D01*
X257874Y243026D02*
X257874Y283274D01*
X190500Y215900D01*
M02*
