G04 EAGLE Gerber RS-274X export*
G75*
%MOMM*%
%FSLAX34Y34*%
%LPD*%
%INSoldermask Top*%
%IPPOS*%
%AMOC8*
5,1,8,0,0,1.08239X$1,22.5*%
G01*
%ADD10C,1.511200*%
%ADD11R,1.727200X1.727200*%
%ADD12P,1.869504X8X22.500000*%
%ADD13C,1.727200*%
%ADD14C,0.609600*%
%ADD15C,1.219200*%
%ADD16C,4.648200*%


D10*
X241300Y299200D03*
X241300Y234200D03*
D11*
X871900Y238500D03*
D12*
X871900Y263900D03*
X897300Y238500D03*
X897300Y263900D03*
X922700Y238500D03*
X922700Y263900D03*
X948100Y238500D03*
X948100Y263900D03*
X973500Y238500D03*
X973500Y263900D03*
X998900Y238500D03*
X998900Y263900D03*
X1024300Y238500D03*
X1024300Y263900D03*
X1049700Y238500D03*
X1049700Y263900D03*
X1075100Y238500D03*
X1075100Y263900D03*
X1100500Y238500D03*
X1100500Y263900D03*
X1125900Y238500D03*
X1125900Y263900D03*
X1151300Y238500D03*
X1151300Y263900D03*
X1176700Y238500D03*
X1176700Y263900D03*
X1202100Y238500D03*
X1202100Y263900D03*
X1227500Y238500D03*
X1227500Y263900D03*
X1252900Y238500D03*
X1252900Y263900D03*
X1278300Y238500D03*
X1278300Y263900D03*
X1303700Y238500D03*
X1303700Y263900D03*
D11*
X871900Y492500D03*
D12*
X871900Y517900D03*
X897300Y492500D03*
X897300Y517900D03*
X922700Y492500D03*
X922700Y517900D03*
X948100Y492500D03*
X948100Y517900D03*
X973500Y492500D03*
X973500Y517900D03*
X998900Y492500D03*
X998900Y517900D03*
X1024300Y492500D03*
X1024300Y517900D03*
X1049700Y492500D03*
X1049700Y517900D03*
X1075100Y492500D03*
X1075100Y517900D03*
X1100500Y492500D03*
X1100500Y517900D03*
X1125900Y492500D03*
X1125900Y517900D03*
X1151300Y492500D03*
X1151300Y517900D03*
X1176700Y492500D03*
X1176700Y517900D03*
X1202100Y492500D03*
X1202100Y517900D03*
X1227500Y492500D03*
X1227500Y517900D03*
X1252900Y492500D03*
X1252900Y517900D03*
X1278300Y492500D03*
X1278300Y517900D03*
X1303700Y492500D03*
X1303700Y517900D03*
D13*
X1041400Y601980D02*
X1041400Y617220D01*
X1066800Y617220D02*
X1066800Y601980D01*
X1092200Y601980D02*
X1092200Y617220D01*
X330200Y109220D02*
X330200Y93980D01*
X355600Y93980D02*
X355600Y109220D01*
X381000Y109220D02*
X381000Y93980D01*
D14*
X17780Y25400D02*
X17782Y25587D01*
X17789Y25774D01*
X17801Y25961D01*
X17817Y26147D01*
X17837Y26333D01*
X17862Y26518D01*
X17892Y26703D01*
X17926Y26887D01*
X17965Y27070D01*
X18008Y27252D01*
X18056Y27432D01*
X18108Y27612D01*
X18165Y27790D01*
X18225Y27967D01*
X18291Y28142D01*
X18360Y28316D01*
X18434Y28488D01*
X18512Y28658D01*
X18594Y28826D01*
X18680Y28992D01*
X18770Y29156D01*
X18864Y29317D01*
X18962Y29477D01*
X19064Y29633D01*
X19170Y29788D01*
X19280Y29939D01*
X19393Y30088D01*
X19510Y30234D01*
X19630Y30377D01*
X19754Y30517D01*
X19881Y30654D01*
X20012Y30788D01*
X20146Y30919D01*
X20283Y31046D01*
X20423Y31170D01*
X20566Y31290D01*
X20712Y31407D01*
X20861Y31520D01*
X21012Y31630D01*
X21167Y31736D01*
X21323Y31838D01*
X21483Y31936D01*
X21644Y32030D01*
X21808Y32120D01*
X21974Y32206D01*
X22142Y32288D01*
X22312Y32366D01*
X22484Y32440D01*
X22658Y32509D01*
X22833Y32575D01*
X23010Y32635D01*
X23188Y32692D01*
X23368Y32744D01*
X23548Y32792D01*
X23730Y32835D01*
X23913Y32874D01*
X24097Y32908D01*
X24282Y32938D01*
X24467Y32963D01*
X24653Y32983D01*
X24839Y32999D01*
X25026Y33011D01*
X25213Y33018D01*
X25400Y33020D01*
X25587Y33018D01*
X25774Y33011D01*
X25961Y32999D01*
X26147Y32983D01*
X26333Y32963D01*
X26518Y32938D01*
X26703Y32908D01*
X26887Y32874D01*
X27070Y32835D01*
X27252Y32792D01*
X27432Y32744D01*
X27612Y32692D01*
X27790Y32635D01*
X27967Y32575D01*
X28142Y32509D01*
X28316Y32440D01*
X28488Y32366D01*
X28658Y32288D01*
X28826Y32206D01*
X28992Y32120D01*
X29156Y32030D01*
X29317Y31936D01*
X29477Y31838D01*
X29633Y31736D01*
X29788Y31630D01*
X29939Y31520D01*
X30088Y31407D01*
X30234Y31290D01*
X30377Y31170D01*
X30517Y31046D01*
X30654Y30919D01*
X30788Y30788D01*
X30919Y30654D01*
X31046Y30517D01*
X31170Y30377D01*
X31290Y30234D01*
X31407Y30088D01*
X31520Y29939D01*
X31630Y29788D01*
X31736Y29633D01*
X31838Y29477D01*
X31936Y29317D01*
X32030Y29156D01*
X32120Y28992D01*
X32206Y28826D01*
X32288Y28658D01*
X32366Y28488D01*
X32440Y28316D01*
X32509Y28142D01*
X32575Y27967D01*
X32635Y27790D01*
X32692Y27612D01*
X32744Y27432D01*
X32792Y27252D01*
X32835Y27070D01*
X32874Y26887D01*
X32908Y26703D01*
X32938Y26518D01*
X32963Y26333D01*
X32983Y26147D01*
X32999Y25961D01*
X33011Y25774D01*
X33018Y25587D01*
X33020Y25400D01*
X33018Y25213D01*
X33011Y25026D01*
X32999Y24839D01*
X32983Y24653D01*
X32963Y24467D01*
X32938Y24282D01*
X32908Y24097D01*
X32874Y23913D01*
X32835Y23730D01*
X32792Y23548D01*
X32744Y23368D01*
X32692Y23188D01*
X32635Y23010D01*
X32575Y22833D01*
X32509Y22658D01*
X32440Y22484D01*
X32366Y22312D01*
X32288Y22142D01*
X32206Y21974D01*
X32120Y21808D01*
X32030Y21644D01*
X31936Y21483D01*
X31838Y21323D01*
X31736Y21167D01*
X31630Y21012D01*
X31520Y20861D01*
X31407Y20712D01*
X31290Y20566D01*
X31170Y20423D01*
X31046Y20283D01*
X30919Y20146D01*
X30788Y20012D01*
X30654Y19881D01*
X30517Y19754D01*
X30377Y19630D01*
X30234Y19510D01*
X30088Y19393D01*
X29939Y19280D01*
X29788Y19170D01*
X29633Y19064D01*
X29477Y18962D01*
X29317Y18864D01*
X29156Y18770D01*
X28992Y18680D01*
X28826Y18594D01*
X28658Y18512D01*
X28488Y18434D01*
X28316Y18360D01*
X28142Y18291D01*
X27967Y18225D01*
X27790Y18165D01*
X27612Y18108D01*
X27432Y18056D01*
X27252Y18008D01*
X27070Y17965D01*
X26887Y17926D01*
X26703Y17892D01*
X26518Y17862D01*
X26333Y17837D01*
X26147Y17817D01*
X25961Y17801D01*
X25774Y17789D01*
X25587Y17782D01*
X25400Y17780D01*
X25213Y17782D01*
X25026Y17789D01*
X24839Y17801D01*
X24653Y17817D01*
X24467Y17837D01*
X24282Y17862D01*
X24097Y17892D01*
X23913Y17926D01*
X23730Y17965D01*
X23548Y18008D01*
X23368Y18056D01*
X23188Y18108D01*
X23010Y18165D01*
X22833Y18225D01*
X22658Y18291D01*
X22484Y18360D01*
X22312Y18434D01*
X22142Y18512D01*
X21974Y18594D01*
X21808Y18680D01*
X21644Y18770D01*
X21483Y18864D01*
X21323Y18962D01*
X21167Y19064D01*
X21012Y19170D01*
X20861Y19280D01*
X20712Y19393D01*
X20566Y19510D01*
X20423Y19630D01*
X20283Y19754D01*
X20146Y19881D01*
X20012Y20012D01*
X19881Y20146D01*
X19754Y20283D01*
X19630Y20423D01*
X19510Y20566D01*
X19393Y20712D01*
X19280Y20861D01*
X19170Y21012D01*
X19064Y21167D01*
X18962Y21323D01*
X18864Y21483D01*
X18770Y21644D01*
X18680Y21808D01*
X18594Y21974D01*
X18512Y22142D01*
X18434Y22312D01*
X18360Y22484D01*
X18291Y22658D01*
X18225Y22833D01*
X18165Y23010D01*
X18108Y23188D01*
X18056Y23368D01*
X18008Y23548D01*
X17965Y23730D01*
X17926Y23913D01*
X17892Y24097D01*
X17862Y24282D01*
X17837Y24467D01*
X17817Y24653D01*
X17801Y24839D01*
X17789Y25026D01*
X17782Y25213D01*
X17780Y25400D01*
D15*
X25400Y25400D03*
D14*
X68580Y584200D02*
X68582Y584387D01*
X68589Y584574D01*
X68601Y584761D01*
X68617Y584947D01*
X68637Y585133D01*
X68662Y585318D01*
X68692Y585503D01*
X68726Y585687D01*
X68765Y585870D01*
X68808Y586052D01*
X68856Y586232D01*
X68908Y586412D01*
X68965Y586590D01*
X69025Y586767D01*
X69091Y586942D01*
X69160Y587116D01*
X69234Y587288D01*
X69312Y587458D01*
X69394Y587626D01*
X69480Y587792D01*
X69570Y587956D01*
X69664Y588117D01*
X69762Y588277D01*
X69864Y588433D01*
X69970Y588588D01*
X70080Y588739D01*
X70193Y588888D01*
X70310Y589034D01*
X70430Y589177D01*
X70554Y589317D01*
X70681Y589454D01*
X70812Y589588D01*
X70946Y589719D01*
X71083Y589846D01*
X71223Y589970D01*
X71366Y590090D01*
X71512Y590207D01*
X71661Y590320D01*
X71812Y590430D01*
X71967Y590536D01*
X72123Y590638D01*
X72283Y590736D01*
X72444Y590830D01*
X72608Y590920D01*
X72774Y591006D01*
X72942Y591088D01*
X73112Y591166D01*
X73284Y591240D01*
X73458Y591309D01*
X73633Y591375D01*
X73810Y591435D01*
X73988Y591492D01*
X74168Y591544D01*
X74348Y591592D01*
X74530Y591635D01*
X74713Y591674D01*
X74897Y591708D01*
X75082Y591738D01*
X75267Y591763D01*
X75453Y591783D01*
X75639Y591799D01*
X75826Y591811D01*
X76013Y591818D01*
X76200Y591820D01*
X76387Y591818D01*
X76574Y591811D01*
X76761Y591799D01*
X76947Y591783D01*
X77133Y591763D01*
X77318Y591738D01*
X77503Y591708D01*
X77687Y591674D01*
X77870Y591635D01*
X78052Y591592D01*
X78232Y591544D01*
X78412Y591492D01*
X78590Y591435D01*
X78767Y591375D01*
X78942Y591309D01*
X79116Y591240D01*
X79288Y591166D01*
X79458Y591088D01*
X79626Y591006D01*
X79792Y590920D01*
X79956Y590830D01*
X80117Y590736D01*
X80277Y590638D01*
X80433Y590536D01*
X80588Y590430D01*
X80739Y590320D01*
X80888Y590207D01*
X81034Y590090D01*
X81177Y589970D01*
X81317Y589846D01*
X81454Y589719D01*
X81588Y589588D01*
X81719Y589454D01*
X81846Y589317D01*
X81970Y589177D01*
X82090Y589034D01*
X82207Y588888D01*
X82320Y588739D01*
X82430Y588588D01*
X82536Y588433D01*
X82638Y588277D01*
X82736Y588117D01*
X82830Y587956D01*
X82920Y587792D01*
X83006Y587626D01*
X83088Y587458D01*
X83166Y587288D01*
X83240Y587116D01*
X83309Y586942D01*
X83375Y586767D01*
X83435Y586590D01*
X83492Y586412D01*
X83544Y586232D01*
X83592Y586052D01*
X83635Y585870D01*
X83674Y585687D01*
X83708Y585503D01*
X83738Y585318D01*
X83763Y585133D01*
X83783Y584947D01*
X83799Y584761D01*
X83811Y584574D01*
X83818Y584387D01*
X83820Y584200D01*
X83818Y584013D01*
X83811Y583826D01*
X83799Y583639D01*
X83783Y583453D01*
X83763Y583267D01*
X83738Y583082D01*
X83708Y582897D01*
X83674Y582713D01*
X83635Y582530D01*
X83592Y582348D01*
X83544Y582168D01*
X83492Y581988D01*
X83435Y581810D01*
X83375Y581633D01*
X83309Y581458D01*
X83240Y581284D01*
X83166Y581112D01*
X83088Y580942D01*
X83006Y580774D01*
X82920Y580608D01*
X82830Y580444D01*
X82736Y580283D01*
X82638Y580123D01*
X82536Y579967D01*
X82430Y579812D01*
X82320Y579661D01*
X82207Y579512D01*
X82090Y579366D01*
X81970Y579223D01*
X81846Y579083D01*
X81719Y578946D01*
X81588Y578812D01*
X81454Y578681D01*
X81317Y578554D01*
X81177Y578430D01*
X81034Y578310D01*
X80888Y578193D01*
X80739Y578080D01*
X80588Y577970D01*
X80433Y577864D01*
X80277Y577762D01*
X80117Y577664D01*
X79956Y577570D01*
X79792Y577480D01*
X79626Y577394D01*
X79458Y577312D01*
X79288Y577234D01*
X79116Y577160D01*
X78942Y577091D01*
X78767Y577025D01*
X78590Y576965D01*
X78412Y576908D01*
X78232Y576856D01*
X78052Y576808D01*
X77870Y576765D01*
X77687Y576726D01*
X77503Y576692D01*
X77318Y576662D01*
X77133Y576637D01*
X76947Y576617D01*
X76761Y576601D01*
X76574Y576589D01*
X76387Y576582D01*
X76200Y576580D01*
X76013Y576582D01*
X75826Y576589D01*
X75639Y576601D01*
X75453Y576617D01*
X75267Y576637D01*
X75082Y576662D01*
X74897Y576692D01*
X74713Y576726D01*
X74530Y576765D01*
X74348Y576808D01*
X74168Y576856D01*
X73988Y576908D01*
X73810Y576965D01*
X73633Y577025D01*
X73458Y577091D01*
X73284Y577160D01*
X73112Y577234D01*
X72942Y577312D01*
X72774Y577394D01*
X72608Y577480D01*
X72444Y577570D01*
X72283Y577664D01*
X72123Y577762D01*
X71967Y577864D01*
X71812Y577970D01*
X71661Y578080D01*
X71512Y578193D01*
X71366Y578310D01*
X71223Y578430D01*
X71083Y578554D01*
X70946Y578681D01*
X70812Y578812D01*
X70681Y578946D01*
X70554Y579083D01*
X70430Y579223D01*
X70310Y579366D01*
X70193Y579512D01*
X70080Y579661D01*
X69970Y579812D01*
X69864Y579967D01*
X69762Y580123D01*
X69664Y580283D01*
X69570Y580444D01*
X69480Y580608D01*
X69394Y580774D01*
X69312Y580942D01*
X69234Y581112D01*
X69160Y581284D01*
X69091Y581458D01*
X69025Y581633D01*
X68965Y581810D01*
X68908Y581988D01*
X68856Y582168D01*
X68808Y582348D01*
X68765Y582530D01*
X68726Y582713D01*
X68692Y582897D01*
X68662Y583082D01*
X68637Y583267D01*
X68617Y583453D01*
X68601Y583639D01*
X68589Y583826D01*
X68582Y584013D01*
X68580Y584200D01*
D15*
X76200Y584200D03*
D14*
X1262380Y584200D02*
X1262382Y584387D01*
X1262389Y584574D01*
X1262401Y584761D01*
X1262417Y584947D01*
X1262437Y585133D01*
X1262462Y585318D01*
X1262492Y585503D01*
X1262526Y585687D01*
X1262565Y585870D01*
X1262608Y586052D01*
X1262656Y586232D01*
X1262708Y586412D01*
X1262765Y586590D01*
X1262825Y586767D01*
X1262891Y586942D01*
X1262960Y587116D01*
X1263034Y587288D01*
X1263112Y587458D01*
X1263194Y587626D01*
X1263280Y587792D01*
X1263370Y587956D01*
X1263464Y588117D01*
X1263562Y588277D01*
X1263664Y588433D01*
X1263770Y588588D01*
X1263880Y588739D01*
X1263993Y588888D01*
X1264110Y589034D01*
X1264230Y589177D01*
X1264354Y589317D01*
X1264481Y589454D01*
X1264612Y589588D01*
X1264746Y589719D01*
X1264883Y589846D01*
X1265023Y589970D01*
X1265166Y590090D01*
X1265312Y590207D01*
X1265461Y590320D01*
X1265612Y590430D01*
X1265767Y590536D01*
X1265923Y590638D01*
X1266083Y590736D01*
X1266244Y590830D01*
X1266408Y590920D01*
X1266574Y591006D01*
X1266742Y591088D01*
X1266912Y591166D01*
X1267084Y591240D01*
X1267258Y591309D01*
X1267433Y591375D01*
X1267610Y591435D01*
X1267788Y591492D01*
X1267968Y591544D01*
X1268148Y591592D01*
X1268330Y591635D01*
X1268513Y591674D01*
X1268697Y591708D01*
X1268882Y591738D01*
X1269067Y591763D01*
X1269253Y591783D01*
X1269439Y591799D01*
X1269626Y591811D01*
X1269813Y591818D01*
X1270000Y591820D01*
X1270187Y591818D01*
X1270374Y591811D01*
X1270561Y591799D01*
X1270747Y591783D01*
X1270933Y591763D01*
X1271118Y591738D01*
X1271303Y591708D01*
X1271487Y591674D01*
X1271670Y591635D01*
X1271852Y591592D01*
X1272032Y591544D01*
X1272212Y591492D01*
X1272390Y591435D01*
X1272567Y591375D01*
X1272742Y591309D01*
X1272916Y591240D01*
X1273088Y591166D01*
X1273258Y591088D01*
X1273426Y591006D01*
X1273592Y590920D01*
X1273756Y590830D01*
X1273917Y590736D01*
X1274077Y590638D01*
X1274233Y590536D01*
X1274388Y590430D01*
X1274539Y590320D01*
X1274688Y590207D01*
X1274834Y590090D01*
X1274977Y589970D01*
X1275117Y589846D01*
X1275254Y589719D01*
X1275388Y589588D01*
X1275519Y589454D01*
X1275646Y589317D01*
X1275770Y589177D01*
X1275890Y589034D01*
X1276007Y588888D01*
X1276120Y588739D01*
X1276230Y588588D01*
X1276336Y588433D01*
X1276438Y588277D01*
X1276536Y588117D01*
X1276630Y587956D01*
X1276720Y587792D01*
X1276806Y587626D01*
X1276888Y587458D01*
X1276966Y587288D01*
X1277040Y587116D01*
X1277109Y586942D01*
X1277175Y586767D01*
X1277235Y586590D01*
X1277292Y586412D01*
X1277344Y586232D01*
X1277392Y586052D01*
X1277435Y585870D01*
X1277474Y585687D01*
X1277508Y585503D01*
X1277538Y585318D01*
X1277563Y585133D01*
X1277583Y584947D01*
X1277599Y584761D01*
X1277611Y584574D01*
X1277618Y584387D01*
X1277620Y584200D01*
X1277618Y584013D01*
X1277611Y583826D01*
X1277599Y583639D01*
X1277583Y583453D01*
X1277563Y583267D01*
X1277538Y583082D01*
X1277508Y582897D01*
X1277474Y582713D01*
X1277435Y582530D01*
X1277392Y582348D01*
X1277344Y582168D01*
X1277292Y581988D01*
X1277235Y581810D01*
X1277175Y581633D01*
X1277109Y581458D01*
X1277040Y581284D01*
X1276966Y581112D01*
X1276888Y580942D01*
X1276806Y580774D01*
X1276720Y580608D01*
X1276630Y580444D01*
X1276536Y580283D01*
X1276438Y580123D01*
X1276336Y579967D01*
X1276230Y579812D01*
X1276120Y579661D01*
X1276007Y579512D01*
X1275890Y579366D01*
X1275770Y579223D01*
X1275646Y579083D01*
X1275519Y578946D01*
X1275388Y578812D01*
X1275254Y578681D01*
X1275117Y578554D01*
X1274977Y578430D01*
X1274834Y578310D01*
X1274688Y578193D01*
X1274539Y578080D01*
X1274388Y577970D01*
X1274233Y577864D01*
X1274077Y577762D01*
X1273917Y577664D01*
X1273756Y577570D01*
X1273592Y577480D01*
X1273426Y577394D01*
X1273258Y577312D01*
X1273088Y577234D01*
X1272916Y577160D01*
X1272742Y577091D01*
X1272567Y577025D01*
X1272390Y576965D01*
X1272212Y576908D01*
X1272032Y576856D01*
X1271852Y576808D01*
X1271670Y576765D01*
X1271487Y576726D01*
X1271303Y576692D01*
X1271118Y576662D01*
X1270933Y576637D01*
X1270747Y576617D01*
X1270561Y576601D01*
X1270374Y576589D01*
X1270187Y576582D01*
X1270000Y576580D01*
X1269813Y576582D01*
X1269626Y576589D01*
X1269439Y576601D01*
X1269253Y576617D01*
X1269067Y576637D01*
X1268882Y576662D01*
X1268697Y576692D01*
X1268513Y576726D01*
X1268330Y576765D01*
X1268148Y576808D01*
X1267968Y576856D01*
X1267788Y576908D01*
X1267610Y576965D01*
X1267433Y577025D01*
X1267258Y577091D01*
X1267084Y577160D01*
X1266912Y577234D01*
X1266742Y577312D01*
X1266574Y577394D01*
X1266408Y577480D01*
X1266244Y577570D01*
X1266083Y577664D01*
X1265923Y577762D01*
X1265767Y577864D01*
X1265612Y577970D01*
X1265461Y578080D01*
X1265312Y578193D01*
X1265166Y578310D01*
X1265023Y578430D01*
X1264883Y578554D01*
X1264746Y578681D01*
X1264612Y578812D01*
X1264481Y578946D01*
X1264354Y579083D01*
X1264230Y579223D01*
X1264110Y579366D01*
X1263993Y579512D01*
X1263880Y579661D01*
X1263770Y579812D01*
X1263664Y579967D01*
X1263562Y580123D01*
X1263464Y580283D01*
X1263370Y580444D01*
X1263280Y580608D01*
X1263194Y580774D01*
X1263112Y580942D01*
X1263034Y581112D01*
X1262960Y581284D01*
X1262891Y581458D01*
X1262825Y581633D01*
X1262765Y581810D01*
X1262708Y581988D01*
X1262656Y582168D01*
X1262608Y582348D01*
X1262565Y582530D01*
X1262526Y582713D01*
X1262492Y582897D01*
X1262462Y583082D01*
X1262437Y583267D01*
X1262417Y583453D01*
X1262401Y583639D01*
X1262389Y583826D01*
X1262382Y584013D01*
X1262380Y584200D01*
D15*
X1270000Y584200D03*
D16*
X1295400Y76200D03*
X1295400Y609600D03*
X50800Y609600D03*
X50800Y50800D03*
M02*
