M48
;GenerationSoftware,Autodesk,EAGLE,9.5.1*%
;CreationDate,2019-12-18T23:33:54Z*%
FMAT,2
ICI,OFF
METRIC,TZ,000.000
T4C0.800
T3C0.889
T2C1.016
T1C3.175
%
G90
M71
T1
X5080Y5080
X5080Y60960
X129540Y60960
X129540Y7620
T2
X38100Y10160
X35560Y10160
X33020Y10160
X109220Y60960
X106680Y60960
X104140Y60960
T3
X97350Y23850
X97350Y26390
X99890Y23850
X99890Y26390
X102430Y23850
X102430Y26390
X104970Y23850
X104970Y26390
X107510Y23850
X107510Y26390
X110050Y23850
X110050Y26390
X112590Y23850
X112590Y26390
X115130Y23850
X115130Y26390
X117670Y23850
X117670Y26390
X120210Y23850
X120210Y26390
X122750Y23850
X122750Y26390
X125290Y23850
X125290Y26390
X127830Y23850
X127830Y26390
X130370Y23850
X130370Y26390
X87190Y49250
X87190Y51790
X89730Y49250
X89730Y51790
X92270Y49250
X92270Y51790
X94810Y49250
X94810Y51790
X97350Y49250
X97350Y51790
X99890Y49250
X99890Y51790
X102430Y49250
X102430Y51790
X104970Y49250
X104970Y51790
X107510Y49250
X107510Y51790
X110050Y49250
X110050Y51790
X112590Y49250
X112590Y51790
X115130Y49250
X115130Y51790
X117670Y49250
X117670Y51790
X120210Y49250
X120210Y51790
X122750Y49250
X122750Y51790
X125290Y49250
X125290Y51790
X127830Y49250
X127830Y51790
X130370Y49250
X130370Y51790
X94810Y26390
X94810Y23850
X92270Y26390
X92270Y23850
X89730Y26390
X89730Y23850
X87190Y26390
X87190Y23850
T4
X24130Y23420
X24130Y29920
M30